<mxfile host="app.diagrams.net" modified="2021-01-14T01:54:09.413Z" agent="5.0 (Windows NT 10.0; Win64; x64) AppleWebKit/537.36 (KHTML, like Gecko) Chrome/87.0.4280.141 Safari/537.36" etag="txx8aaNRxbxjzJYCw_Mg" version="14.1.9" type="github">
  <diagram id="_fGBbQ_tDHvk_TWlKCjW" name="Page-1">
    <mxGraphModel dx="767" dy="1049" grid="1" gridSize="10" guides="1" tooltips="1" connect="1" arrows="1" fold="1" page="1" pageScale="1" pageWidth="827" pageHeight="1169" math="0" shadow="0">
      <root>
        <mxCell id="0" />
        <mxCell id="1" parent="0" />
        <mxCell id="HQgpcalhJWOucow4i2d_-1" value="会員" style="shape=table;startSize=30;container=1;collapsible=1;childLayout=tableLayout;fixedRows=1;rowLines=0;fontStyle=1;align=center;resizeLast=1;" parent="1" vertex="1">
          <mxGeometry x="50" y="10" width="180" height="290" as="geometry" />
        </mxCell>
        <mxCell id="HQgpcalhJWOucow4i2d_-2" value="" style="shape=partialRectangle;collapsible=0;dropTarget=0;pointerEvents=0;fillColor=none;top=0;left=0;bottom=1;right=0;points=[[0,0.5],[1,0.5]];portConstraint=eastwest;" parent="HQgpcalhJWOucow4i2d_-1" vertex="1">
          <mxGeometry y="30" width="180" height="30" as="geometry" />
        </mxCell>
        <mxCell id="HQgpcalhJWOucow4i2d_-3" value="PK" style="shape=partialRectangle;connectable=0;fillColor=none;top=0;left=0;bottom=0;right=0;fontStyle=1;overflow=hidden;" parent="HQgpcalhJWOucow4i2d_-2" vertex="1">
          <mxGeometry width="30" height="30" as="geometry" />
        </mxCell>
        <mxCell id="HQgpcalhJWOucow4i2d_-4" value="UniqueID" style="shape=partialRectangle;connectable=0;fillColor=none;top=0;left=0;bottom=0;right=0;align=left;spacingLeft=6;fontStyle=5;overflow=hidden;" parent="HQgpcalhJWOucow4i2d_-2" vertex="1">
          <mxGeometry x="30" width="150" height="30" as="geometry" />
        </mxCell>
        <mxCell id="HQgpcalhJWOucow4i2d_-5" value="" style="shape=partialRectangle;collapsible=0;dropTarget=0;pointerEvents=0;fillColor=none;top=0;left=0;bottom=0;right=0;points=[[0,0.5],[1,0.5]];portConstraint=eastwest;" parent="HQgpcalhJWOucow4i2d_-1" vertex="1">
          <mxGeometry y="60" width="180" height="30" as="geometry" />
        </mxCell>
        <mxCell id="HQgpcalhJWOucow4i2d_-6" value="" style="shape=partialRectangle;connectable=0;fillColor=none;top=0;left=0;bottom=0;right=0;editable=1;overflow=hidden;" parent="HQgpcalhJWOucow4i2d_-5" vertex="1">
          <mxGeometry width="30" height="30" as="geometry" />
        </mxCell>
        <mxCell id="HQgpcalhJWOucow4i2d_-7" value="氏名" style="shape=partialRectangle;connectable=0;fillColor=none;top=0;left=0;bottom=0;right=0;align=left;spacingLeft=6;overflow=hidden;" parent="HQgpcalhJWOucow4i2d_-5" vertex="1">
          <mxGeometry x="30" width="150" height="30" as="geometry" />
        </mxCell>
        <mxCell id="HQgpcalhJWOucow4i2d_-8" value="" style="shape=partialRectangle;collapsible=0;dropTarget=0;pointerEvents=0;fillColor=none;top=0;left=0;bottom=0;right=0;points=[[0,0.5],[1,0.5]];portConstraint=eastwest;" parent="HQgpcalhJWOucow4i2d_-1" vertex="1">
          <mxGeometry y="90" width="180" height="20" as="geometry" />
        </mxCell>
        <mxCell id="HQgpcalhJWOucow4i2d_-9" value="" style="shape=partialRectangle;connectable=0;fillColor=none;top=0;left=0;bottom=0;right=0;editable=1;overflow=hidden;" parent="HQgpcalhJWOucow4i2d_-8" vertex="1">
          <mxGeometry width="30" height="20" as="geometry" />
        </mxCell>
        <mxCell id="HQgpcalhJWOucow4i2d_-10" value="住所" style="shape=partialRectangle;connectable=0;fillColor=none;top=0;left=0;bottom=0;right=0;align=left;spacingLeft=6;overflow=hidden;" parent="HQgpcalhJWOucow4i2d_-8" vertex="1">
          <mxGeometry x="30" width="150" height="20" as="geometry" />
        </mxCell>
        <mxCell id="HQgpcalhJWOucow4i2d_-11" value="" style="shape=partialRectangle;collapsible=0;dropTarget=0;pointerEvents=0;fillColor=none;top=0;left=0;bottom=0;right=0;points=[[0,0.5],[1,0.5]];portConstraint=eastwest;" parent="HQgpcalhJWOucow4i2d_-1" vertex="1">
          <mxGeometry y="110" width="180" height="30" as="geometry" />
        </mxCell>
        <mxCell id="HQgpcalhJWOucow4i2d_-12" value="" style="shape=partialRectangle;connectable=0;fillColor=none;top=0;left=0;bottom=0;right=0;editable=1;overflow=hidden;" parent="HQgpcalhJWOucow4i2d_-11" vertex="1">
          <mxGeometry width="30" height="30" as="geometry" />
        </mxCell>
        <mxCell id="HQgpcalhJWOucow4i2d_-13" value="メールアドレス" style="shape=partialRectangle;connectable=0;fillColor=none;top=0;left=0;bottom=0;right=0;align=left;spacingLeft=6;overflow=hidden;" parent="HQgpcalhJWOucow4i2d_-11" vertex="1">
          <mxGeometry x="30" width="150" height="30" as="geometry" />
        </mxCell>
        <mxCell id="v8ZFFHO1HFxHdXyD2R_P-13" style="shape=partialRectangle;collapsible=0;dropTarget=0;pointerEvents=0;fillColor=none;top=0;left=0;bottom=0;right=0;points=[[0,0.5],[1,0.5]];portConstraint=eastwest;" parent="HQgpcalhJWOucow4i2d_-1" vertex="1">
          <mxGeometry y="140" width="180" height="30" as="geometry" />
        </mxCell>
        <mxCell id="v8ZFFHO1HFxHdXyD2R_P-14" style="shape=partialRectangle;connectable=0;fillColor=none;top=0;left=0;bottom=0;right=0;editable=1;overflow=hidden;" parent="v8ZFFHO1HFxHdXyD2R_P-13" vertex="1">
          <mxGeometry width="30" height="30" as="geometry" />
        </mxCell>
        <mxCell id="v8ZFFHO1HFxHdXyD2R_P-15" value="電話番号" style="shape=partialRectangle;connectable=0;fillColor=none;top=0;left=0;bottom=0;right=0;align=left;spacingLeft=6;overflow=hidden;" parent="v8ZFFHO1HFxHdXyD2R_P-13" vertex="1">
          <mxGeometry x="30" width="150" height="30" as="geometry" />
        </mxCell>
        <mxCell id="v8ZFFHO1HFxHdXyD2R_P-1" style="shape=partialRectangle;collapsible=0;dropTarget=0;pointerEvents=0;fillColor=none;top=0;left=0;bottom=0;right=0;points=[[0,0.5],[1,0.5]];portConstraint=eastwest;" parent="HQgpcalhJWOucow4i2d_-1" vertex="1">
          <mxGeometry y="170" width="180" height="30" as="geometry" />
        </mxCell>
        <mxCell id="v8ZFFHO1HFxHdXyD2R_P-2" style="shape=partialRectangle;connectable=0;fillColor=none;top=0;left=0;bottom=0;right=0;editable=1;overflow=hidden;" parent="v8ZFFHO1HFxHdXyD2R_P-1" vertex="1">
          <mxGeometry width="30" height="30" as="geometry" />
        </mxCell>
        <mxCell id="v8ZFFHO1HFxHdXyD2R_P-3" value="パスワード" style="shape=partialRectangle;connectable=0;fillColor=none;top=0;left=0;bottom=0;right=0;align=left;spacingLeft=6;overflow=hidden;" parent="v8ZFFHO1HFxHdXyD2R_P-1" vertex="1">
          <mxGeometry x="30" width="150" height="30" as="geometry" />
        </mxCell>
        <mxCell id="v8ZFFHO1HFxHdXyD2R_P-7" style="shape=partialRectangle;collapsible=0;dropTarget=0;pointerEvents=0;fillColor=none;top=0;left=0;bottom=0;right=0;points=[[0,0.5],[1,0.5]];portConstraint=eastwest;" parent="HQgpcalhJWOucow4i2d_-1" vertex="1">
          <mxGeometry y="200" width="180" height="30" as="geometry" />
        </mxCell>
        <mxCell id="v8ZFFHO1HFxHdXyD2R_P-8" style="shape=partialRectangle;connectable=0;fillColor=none;top=0;left=0;bottom=0;right=0;editable=1;overflow=hidden;" parent="v8ZFFHO1HFxHdXyD2R_P-7" vertex="1">
          <mxGeometry width="30" height="30" as="geometry" />
        </mxCell>
        <mxCell id="v8ZFFHO1HFxHdXyD2R_P-9" value="注文商品" style="shape=partialRectangle;connectable=0;fillColor=none;top=0;left=0;bottom=0;right=0;align=left;spacingLeft=6;overflow=hidden;" parent="v8ZFFHO1HFxHdXyD2R_P-7" vertex="1">
          <mxGeometry x="30" width="150" height="30" as="geometry" />
        </mxCell>
        <mxCell id="v8ZFFHO1HFxHdXyD2R_P-10" style="shape=partialRectangle;collapsible=0;dropTarget=0;pointerEvents=0;fillColor=none;top=0;left=0;bottom=0;right=0;points=[[0,0.5],[1,0.5]];portConstraint=eastwest;" parent="HQgpcalhJWOucow4i2d_-1" vertex="1">
          <mxGeometry y="230" width="180" height="30" as="geometry" />
        </mxCell>
        <mxCell id="v8ZFFHO1HFxHdXyD2R_P-11" style="shape=partialRectangle;connectable=0;fillColor=none;top=0;left=0;bottom=0;right=0;editable=1;overflow=hidden;" parent="v8ZFFHO1HFxHdXyD2R_P-10" vertex="1">
          <mxGeometry width="30" height="30" as="geometry" />
        </mxCell>
        <mxCell id="v8ZFFHO1HFxHdXyD2R_P-12" value="登録日" style="shape=partialRectangle;connectable=0;fillColor=none;top=0;left=0;bottom=0;right=0;align=left;spacingLeft=6;overflow=hidden;" parent="v8ZFFHO1HFxHdXyD2R_P-10" vertex="1">
          <mxGeometry x="30" width="150" height="30" as="geometry" />
        </mxCell>
        <mxCell id="v8ZFFHO1HFxHdXyD2R_P-16" style="shape=partialRectangle;collapsible=0;dropTarget=0;pointerEvents=0;fillColor=none;top=0;left=0;bottom=0;right=0;points=[[0,0.5],[1,0.5]];portConstraint=eastwest;" parent="HQgpcalhJWOucow4i2d_-1" vertex="1">
          <mxGeometry y="260" width="180" height="30" as="geometry" />
        </mxCell>
        <mxCell id="v8ZFFHO1HFxHdXyD2R_P-17" style="shape=partialRectangle;connectable=0;fillColor=none;top=0;left=0;bottom=0;right=0;editable=1;overflow=hidden;" parent="v8ZFFHO1HFxHdXyD2R_P-16" vertex="1">
          <mxGeometry width="30" height="30" as="geometry" />
        </mxCell>
        <mxCell id="v8ZFFHO1HFxHdXyD2R_P-18" value="更新日" style="shape=partialRectangle;connectable=0;fillColor=none;top=0;left=0;bottom=0;right=0;align=left;spacingLeft=6;overflow=hidden;" parent="v8ZFFHO1HFxHdXyD2R_P-16" vertex="1">
          <mxGeometry x="30" width="150" height="30" as="geometry" />
        </mxCell>
        <mxCell id="HQgpcalhJWOucow4i2d_-14" value="商品" style="shape=table;startSize=30;container=1;collapsible=1;childLayout=tableLayout;fixedRows=1;rowLines=0;fontStyle=1;align=center;resizeLast=1;" parent="1" vertex="1">
          <mxGeometry x="260" y="10" width="180" height="270" as="geometry" />
        </mxCell>
        <mxCell id="HQgpcalhJWOucow4i2d_-15" value="" style="shape=partialRectangle;collapsible=0;dropTarget=0;pointerEvents=0;fillColor=none;top=0;left=0;bottom=1;right=0;points=[[0,0.5],[1,0.5]];portConstraint=eastwest;" parent="HQgpcalhJWOucow4i2d_-14" vertex="1">
          <mxGeometry y="30" width="180" height="30" as="geometry" />
        </mxCell>
        <mxCell id="HQgpcalhJWOucow4i2d_-16" value="PK" style="shape=partialRectangle;connectable=0;fillColor=none;top=0;left=0;bottom=0;right=0;fontStyle=1;overflow=hidden;" parent="HQgpcalhJWOucow4i2d_-15" vertex="1">
          <mxGeometry width="30" height="30" as="geometry" />
        </mxCell>
        <mxCell id="HQgpcalhJWOucow4i2d_-17" value="UniqueID" style="shape=partialRectangle;connectable=0;fillColor=none;top=0;left=0;bottom=0;right=0;align=left;spacingLeft=6;fontStyle=5;overflow=hidden;" parent="HQgpcalhJWOucow4i2d_-15" vertex="1">
          <mxGeometry x="30" width="150" height="30" as="geometry" />
        </mxCell>
        <mxCell id="HQgpcalhJWOucow4i2d_-18" value="" style="shape=partialRectangle;collapsible=0;dropTarget=0;pointerEvents=0;fillColor=none;top=0;left=0;bottom=0;right=0;points=[[0,0.5],[1,0.5]];portConstraint=eastwest;" parent="HQgpcalhJWOucow4i2d_-14" vertex="1">
          <mxGeometry y="60" width="180" height="30" as="geometry" />
        </mxCell>
        <mxCell id="HQgpcalhJWOucow4i2d_-19" value="" style="shape=partialRectangle;connectable=0;fillColor=none;top=0;left=0;bottom=0;right=0;editable=1;overflow=hidden;" parent="HQgpcalhJWOucow4i2d_-18" vertex="1">
          <mxGeometry width="30" height="30" as="geometry" />
        </mxCell>
        <mxCell id="HQgpcalhJWOucow4i2d_-20" value="商品名" style="shape=partialRectangle;connectable=0;fillColor=none;top=0;left=0;bottom=0;right=0;align=left;spacingLeft=6;overflow=hidden;" parent="HQgpcalhJWOucow4i2d_-18" vertex="1">
          <mxGeometry x="30" width="150" height="30" as="geometry" />
        </mxCell>
        <mxCell id="HQgpcalhJWOucow4i2d_-21" value="" style="shape=partialRectangle;collapsible=0;dropTarget=0;pointerEvents=0;fillColor=none;top=0;left=0;bottom=0;right=0;points=[[0,0.5],[1,0.5]];portConstraint=eastwest;" parent="HQgpcalhJWOucow4i2d_-14" vertex="1">
          <mxGeometry y="90" width="180" height="30" as="geometry" />
        </mxCell>
        <mxCell id="HQgpcalhJWOucow4i2d_-22" value="" style="shape=partialRectangle;connectable=0;fillColor=none;top=0;left=0;bottom=0;right=0;editable=1;overflow=hidden;" parent="HQgpcalhJWOucow4i2d_-21" vertex="1">
          <mxGeometry width="30" height="30" as="geometry" />
        </mxCell>
        <mxCell id="HQgpcalhJWOucow4i2d_-23" value="価格" style="shape=partialRectangle;connectable=0;fillColor=none;top=0;left=0;bottom=0;right=0;align=left;spacingLeft=6;overflow=hidden;" parent="HQgpcalhJWOucow4i2d_-21" vertex="1">
          <mxGeometry x="30" width="150" height="30" as="geometry" />
        </mxCell>
        <mxCell id="HQgpcalhJWOucow4i2d_-24" value="" style="shape=partialRectangle;collapsible=0;dropTarget=0;pointerEvents=0;fillColor=none;top=0;left=0;bottom=0;right=0;points=[[0,0.5],[1,0.5]];portConstraint=eastwest;" parent="HQgpcalhJWOucow4i2d_-14" vertex="1">
          <mxGeometry y="120" width="180" height="30" as="geometry" />
        </mxCell>
        <mxCell id="HQgpcalhJWOucow4i2d_-25" value="" style="shape=partialRectangle;connectable=0;fillColor=none;top=0;left=0;bottom=0;right=0;editable=1;overflow=hidden;" parent="HQgpcalhJWOucow4i2d_-24" vertex="1">
          <mxGeometry width="30" height="30" as="geometry" />
        </mxCell>
        <mxCell id="HQgpcalhJWOucow4i2d_-26" value="在庫数" style="shape=partialRectangle;connectable=0;fillColor=none;top=0;left=0;bottom=0;right=0;align=left;spacingLeft=6;overflow=hidden;" parent="HQgpcalhJWOucow4i2d_-24" vertex="1">
          <mxGeometry x="30" width="150" height="30" as="geometry" />
        </mxCell>
        <mxCell id="v8ZFFHO1HFxHdXyD2R_P-26" style="shape=partialRectangle;collapsible=0;dropTarget=0;pointerEvents=0;fillColor=none;top=0;left=0;bottom=0;right=0;points=[[0,0.5],[1,0.5]];portConstraint=eastwest;" parent="HQgpcalhJWOucow4i2d_-14" vertex="1">
          <mxGeometry y="150" width="180" height="30" as="geometry" />
        </mxCell>
        <mxCell id="v8ZFFHO1HFxHdXyD2R_P-27" style="shape=partialRectangle;connectable=0;fillColor=none;top=0;left=0;bottom=0;right=0;editable=1;overflow=hidden;" parent="v8ZFFHO1HFxHdXyD2R_P-26" vertex="1">
          <mxGeometry width="30" height="30" as="geometry" />
        </mxCell>
        <mxCell id="v8ZFFHO1HFxHdXyD2R_P-28" value="商品説明" style="shape=partialRectangle;connectable=0;fillColor=none;top=0;left=0;bottom=0;right=0;align=left;spacingLeft=6;overflow=hidden;" parent="v8ZFFHO1HFxHdXyD2R_P-26" vertex="1">
          <mxGeometry x="30" width="150" height="30" as="geometry" />
        </mxCell>
        <mxCell id="v8ZFFHO1HFxHdXyD2R_P-100" style="shape=partialRectangle;collapsible=0;dropTarget=0;pointerEvents=0;fillColor=none;top=0;left=0;bottom=0;right=0;points=[[0,0.5],[1,0.5]];portConstraint=eastwest;" parent="HQgpcalhJWOucow4i2d_-14" vertex="1">
          <mxGeometry y="180" width="180" height="30" as="geometry" />
        </mxCell>
        <mxCell id="v8ZFFHO1HFxHdXyD2R_P-101" style="shape=partialRectangle;connectable=0;fillColor=none;top=0;left=0;bottom=0;right=0;editable=1;overflow=hidden;" parent="v8ZFFHO1HFxHdXyD2R_P-100" vertex="1">
          <mxGeometry width="30" height="30" as="geometry" />
        </mxCell>
        <mxCell id="v8ZFFHO1HFxHdXyD2R_P-102" value="商品ジャンル" style="shape=partialRectangle;connectable=0;fillColor=none;top=0;left=0;bottom=0;right=0;align=left;spacingLeft=6;overflow=hidden;" parent="v8ZFFHO1HFxHdXyD2R_P-100" vertex="1">
          <mxGeometry x="30" width="150" height="30" as="geometry" />
        </mxCell>
        <mxCell id="v8ZFFHO1HFxHdXyD2R_P-23" style="shape=partialRectangle;collapsible=0;dropTarget=0;pointerEvents=0;fillColor=none;top=0;left=0;bottom=0;right=0;points=[[0,0.5],[1,0.5]];portConstraint=eastwest;" parent="HQgpcalhJWOucow4i2d_-14" vertex="1">
          <mxGeometry y="210" width="180" height="30" as="geometry" />
        </mxCell>
        <mxCell id="v8ZFFHO1HFxHdXyD2R_P-24" style="shape=partialRectangle;connectable=0;fillColor=none;top=0;left=0;bottom=0;right=0;editable=1;overflow=hidden;" parent="v8ZFFHO1HFxHdXyD2R_P-23" vertex="1">
          <mxGeometry width="30" height="30" as="geometry" />
        </mxCell>
        <mxCell id="v8ZFFHO1HFxHdXyD2R_P-25" value="登録日" style="shape=partialRectangle;connectable=0;fillColor=none;top=0;left=0;bottom=0;right=0;align=left;spacingLeft=6;overflow=hidden;" parent="v8ZFFHO1HFxHdXyD2R_P-23" vertex="1">
          <mxGeometry x="30" width="150" height="30" as="geometry" />
        </mxCell>
        <mxCell id="v8ZFFHO1HFxHdXyD2R_P-20" style="shape=partialRectangle;collapsible=0;dropTarget=0;pointerEvents=0;fillColor=none;top=0;left=0;bottom=0;right=0;points=[[0,0.5],[1,0.5]];portConstraint=eastwest;" parent="HQgpcalhJWOucow4i2d_-14" vertex="1">
          <mxGeometry y="240" width="180" height="30" as="geometry" />
        </mxCell>
        <mxCell id="v8ZFFHO1HFxHdXyD2R_P-21" style="shape=partialRectangle;connectable=0;fillColor=none;top=0;left=0;bottom=0;right=0;editable=1;overflow=hidden;" parent="v8ZFFHO1HFxHdXyD2R_P-20" vertex="1">
          <mxGeometry width="30" height="30" as="geometry" />
        </mxCell>
        <mxCell id="v8ZFFHO1HFxHdXyD2R_P-22" value="更新日" style="shape=partialRectangle;connectable=0;fillColor=none;top=0;left=0;bottom=0;right=0;align=left;spacingLeft=6;overflow=hidden;" parent="v8ZFFHO1HFxHdXyD2R_P-20" vertex="1">
          <mxGeometry x="30" width="150" height="30" as="geometry" />
        </mxCell>
        <mxCell id="HQgpcalhJWOucow4i2d_-27" value="配送先" style="shape=table;startSize=30;container=1;collapsible=1;childLayout=tableLayout;fixedRows=1;rowLines=0;fontStyle=1;align=center;resizeLast=1;" parent="1" vertex="1">
          <mxGeometry x="270" y="370" width="185" height="380.00000000000136" as="geometry" />
        </mxCell>
        <mxCell id="HQgpcalhJWOucow4i2d_-28" value="" style="shape=partialRectangle;collapsible=0;dropTarget=0;pointerEvents=0;fillColor=none;top=0;left=0;bottom=1;right=0;points=[[0,0.5],[1,0.5]];portConstraint=eastwest;" parent="HQgpcalhJWOucow4i2d_-27" vertex="1">
          <mxGeometry y="30" width="185" height="30" as="geometry" />
        </mxCell>
        <mxCell id="HQgpcalhJWOucow4i2d_-29" value="PK" style="shape=partialRectangle;connectable=0;fillColor=none;top=0;left=0;bottom=0;right=0;fontStyle=1;overflow=hidden;" parent="HQgpcalhJWOucow4i2d_-28" vertex="1">
          <mxGeometry width="30" height="30" as="geometry" />
        </mxCell>
        <mxCell id="HQgpcalhJWOucow4i2d_-30" value="UniqueID" style="shape=partialRectangle;connectable=0;fillColor=none;top=0;left=0;bottom=0;right=0;align=left;spacingLeft=6;fontStyle=5;overflow=hidden;" parent="HQgpcalhJWOucow4i2d_-28" vertex="1">
          <mxGeometry x="30" width="155" height="30" as="geometry" />
        </mxCell>
        <mxCell id="K7CuI77C3Jk4myJoS-8p-39" style="shape=partialRectangle;collapsible=0;dropTarget=0;pointerEvents=0;fillColor=none;top=0;left=0;bottom=0;right=0;points=[[0,0.5],[1,0.5]];portConstraint=eastwest;" vertex="1" parent="HQgpcalhJWOucow4i2d_-27">
          <mxGeometry y="60" width="185" height="30" as="geometry" />
        </mxCell>
        <mxCell id="K7CuI77C3Jk4myJoS-8p-40" value="FK" style="shape=partialRectangle;connectable=0;fillColor=none;top=0;left=0;bottom=0;right=0;editable=1;overflow=hidden;" vertex="1" parent="K7CuI77C3Jk4myJoS-8p-39">
          <mxGeometry width="30" height="30" as="geometry" />
        </mxCell>
        <mxCell id="K7CuI77C3Jk4myJoS-8p-41" value="会員ID" style="shape=partialRectangle;connectable=0;fillColor=none;top=0;left=0;bottom=0;right=0;align=left;spacingLeft=6;overflow=hidden;" vertex="1" parent="K7CuI77C3Jk4myJoS-8p-39">
          <mxGeometry x="30" width="155" height="30" as="geometry" />
        </mxCell>
        <mxCell id="HQgpcalhJWOucow4i2d_-31" value="" style="shape=partialRectangle;collapsible=0;dropTarget=0;pointerEvents=0;fillColor=none;top=0;left=0;bottom=0;right=0;points=[[0,0.5],[1,0.5]];portConstraint=eastwest;" parent="HQgpcalhJWOucow4i2d_-27" vertex="1">
          <mxGeometry y="90" width="185" height="30" as="geometry" />
        </mxCell>
        <mxCell id="HQgpcalhJWOucow4i2d_-32" value="" style="shape=partialRectangle;connectable=0;fillColor=none;top=0;left=0;bottom=0;right=0;editable=1;overflow=hidden;" parent="HQgpcalhJWOucow4i2d_-31" vertex="1">
          <mxGeometry width="30" height="30" as="geometry" />
        </mxCell>
        <mxCell id="HQgpcalhJWOucow4i2d_-33" value="郵便番号" style="shape=partialRectangle;connectable=0;fillColor=none;top=0;left=0;bottom=0;right=0;align=left;spacingLeft=6;overflow=hidden;" parent="HQgpcalhJWOucow4i2d_-31" vertex="1">
          <mxGeometry x="30" width="155" height="30" as="geometry" />
        </mxCell>
        <mxCell id="HQgpcalhJWOucow4i2d_-34" value="" style="shape=partialRectangle;collapsible=0;dropTarget=0;pointerEvents=0;fillColor=none;top=0;left=0;bottom=0;right=0;points=[[0,0.5],[1,0.5]];portConstraint=eastwest;" parent="HQgpcalhJWOucow4i2d_-27" vertex="1">
          <mxGeometry y="120" width="185" height="30" as="geometry" />
        </mxCell>
        <mxCell id="HQgpcalhJWOucow4i2d_-35" value="" style="shape=partialRectangle;connectable=0;fillColor=none;top=0;left=0;bottom=0;right=0;editable=1;overflow=hidden;" parent="HQgpcalhJWOucow4i2d_-34" vertex="1">
          <mxGeometry width="30" height="30" as="geometry" />
        </mxCell>
        <mxCell id="HQgpcalhJWOucow4i2d_-36" value="都道府県" style="shape=partialRectangle;connectable=0;fillColor=none;top=0;left=0;bottom=0;right=0;align=left;spacingLeft=6;overflow=hidden;" parent="HQgpcalhJWOucow4i2d_-34" vertex="1">
          <mxGeometry x="30" width="155" height="30" as="geometry" />
        </mxCell>
        <mxCell id="v8ZFFHO1HFxHdXyD2R_P-35" style="shape=partialRectangle;collapsible=0;dropTarget=0;pointerEvents=0;fillColor=none;top=0;left=0;bottom=0;right=0;points=[[0,0.5],[1,0.5]];portConstraint=eastwest;" parent="HQgpcalhJWOucow4i2d_-27" vertex="1">
          <mxGeometry y="150" width="185" height="30" as="geometry" />
        </mxCell>
        <mxCell id="v8ZFFHO1HFxHdXyD2R_P-36" style="shape=partialRectangle;connectable=0;fillColor=none;top=0;left=0;bottom=0;right=0;editable=1;overflow=hidden;" parent="v8ZFFHO1HFxHdXyD2R_P-35" vertex="1">
          <mxGeometry width="30" height="30" as="geometry" />
        </mxCell>
        <mxCell id="v8ZFFHO1HFxHdXyD2R_P-37" value="市区町村" style="shape=partialRectangle;connectable=0;fillColor=none;top=0;left=0;bottom=0;right=0;align=left;spacingLeft=6;overflow=hidden;" parent="v8ZFFHO1HFxHdXyD2R_P-35" vertex="1">
          <mxGeometry x="30" width="155" height="30" as="geometry" />
        </mxCell>
        <mxCell id="v8ZFFHO1HFxHdXyD2R_P-32" style="shape=partialRectangle;collapsible=0;dropTarget=0;pointerEvents=0;fillColor=none;top=0;left=0;bottom=0;right=0;points=[[0,0.5],[1,0.5]];portConstraint=eastwest;" parent="HQgpcalhJWOucow4i2d_-27" vertex="1">
          <mxGeometry y="180" width="185" height="30" as="geometry" />
        </mxCell>
        <mxCell id="v8ZFFHO1HFxHdXyD2R_P-33" style="shape=partialRectangle;connectable=0;fillColor=none;top=0;left=0;bottom=0;right=0;editable=1;overflow=hidden;" parent="v8ZFFHO1HFxHdXyD2R_P-32" vertex="1">
          <mxGeometry width="30" height="30" as="geometry" />
        </mxCell>
        <mxCell id="v8ZFFHO1HFxHdXyD2R_P-34" value="番地" style="shape=partialRectangle;connectable=0;fillColor=none;top=0;left=0;bottom=0;right=0;align=left;spacingLeft=6;overflow=hidden;" parent="v8ZFFHO1HFxHdXyD2R_P-32" vertex="1">
          <mxGeometry x="30" width="155" height="30" as="geometry" />
        </mxCell>
        <mxCell id="v8ZFFHO1HFxHdXyD2R_P-29" style="shape=partialRectangle;collapsible=0;dropTarget=0;pointerEvents=0;fillColor=none;top=0;left=0;bottom=0;right=0;points=[[0,0.5],[1,0.5]];portConstraint=eastwest;" parent="HQgpcalhJWOucow4i2d_-27" vertex="1">
          <mxGeometry y="210" width="185" height="30" as="geometry" />
        </mxCell>
        <mxCell id="v8ZFFHO1HFxHdXyD2R_P-30" style="shape=partialRectangle;connectable=0;fillColor=none;top=0;left=0;bottom=0;right=0;editable=1;overflow=hidden;" parent="v8ZFFHO1HFxHdXyD2R_P-29" vertex="1">
          <mxGeometry width="30" height="30" as="geometry" />
        </mxCell>
        <mxCell id="v8ZFFHO1HFxHdXyD2R_P-31" value="建物名" style="shape=partialRectangle;connectable=0;fillColor=none;top=0;left=0;bottom=0;right=0;align=left;spacingLeft=6;overflow=hidden;" parent="v8ZFFHO1HFxHdXyD2R_P-29" vertex="1">
          <mxGeometry x="30" width="155" height="30" as="geometry" />
        </mxCell>
        <mxCell id="HQgpcalhJWOucow4i2d_-37" value="" style="shape=partialRectangle;collapsible=0;dropTarget=0;pointerEvents=0;fillColor=none;top=0;left=0;bottom=0;right=0;points=[[0,0.5],[1,0.5]];portConstraint=eastwest;" parent="HQgpcalhJWOucow4i2d_-27" vertex="1">
          <mxGeometry y="240" width="185" height="30" as="geometry" />
        </mxCell>
        <mxCell id="HQgpcalhJWOucow4i2d_-38" value="" style="shape=partialRectangle;connectable=0;fillColor=none;top=0;left=0;bottom=0;right=0;editable=1;overflow=hidden;" parent="HQgpcalhJWOucow4i2d_-37" vertex="1">
          <mxGeometry width="30" height="30" as="geometry" />
        </mxCell>
        <mxCell id="HQgpcalhJWOucow4i2d_-39" value="電話番号" style="shape=partialRectangle;connectable=0;fillColor=none;top=0;left=0;bottom=0;right=0;align=left;spacingLeft=6;overflow=hidden;whiteSpace=wrap;" parent="HQgpcalhJWOucow4i2d_-37" vertex="1">
          <mxGeometry x="30" width="155" height="30" as="geometry" />
        </mxCell>
        <mxCell id="v8ZFFHO1HFxHdXyD2R_P-104" style="shape=partialRectangle;collapsible=0;dropTarget=0;pointerEvents=0;fillColor=none;top=0;left=0;bottom=0;right=0;points=[[0,0.5],[1,0.5]];portConstraint=eastwest;" parent="HQgpcalhJWOucow4i2d_-27" vertex="1">
          <mxGeometry y="270" width="185" height="30" as="geometry" />
        </mxCell>
        <mxCell id="v8ZFFHO1HFxHdXyD2R_P-105" style="shape=partialRectangle;connectable=0;fillColor=none;top=0;left=0;bottom=0;right=0;editable=1;overflow=hidden;" parent="v8ZFFHO1HFxHdXyD2R_P-104" vertex="1">
          <mxGeometry width="30" height="30" as="geometry" />
        </mxCell>
        <mxCell id="v8ZFFHO1HFxHdXyD2R_P-106" value="宛名" style="shape=partialRectangle;connectable=0;fillColor=none;top=0;left=0;bottom=0;right=0;align=left;spacingLeft=6;overflow=hidden;whiteSpace=wrap;" parent="v8ZFFHO1HFxHdXyD2R_P-104" vertex="1">
          <mxGeometry x="30" width="155" height="30" as="geometry" />
        </mxCell>
        <mxCell id="K7CuI77C3Jk4myJoS-8p-48" style="shape=partialRectangle;collapsible=0;dropTarget=0;pointerEvents=0;fillColor=none;top=0;left=0;bottom=0;right=0;points=[[0,0.5],[1,0.5]];portConstraint=eastwest;" vertex="1" parent="HQgpcalhJWOucow4i2d_-27">
          <mxGeometry y="300" width="185" height="30" as="geometry" />
        </mxCell>
        <mxCell id="K7CuI77C3Jk4myJoS-8p-49" style="shape=partialRectangle;connectable=0;fillColor=none;top=0;left=0;bottom=0;right=0;editable=1;overflow=hidden;" vertex="1" parent="K7CuI77C3Jk4myJoS-8p-48">
          <mxGeometry width="30" height="30" as="geometry" />
        </mxCell>
        <mxCell id="K7CuI77C3Jk4myJoS-8p-50" value="登録日" style="shape=partialRectangle;connectable=0;fillColor=none;top=0;left=0;bottom=0;right=0;align=left;spacingLeft=6;overflow=hidden;whiteSpace=wrap;" vertex="1" parent="K7CuI77C3Jk4myJoS-8p-48">
          <mxGeometry x="30" width="155" height="30" as="geometry" />
        </mxCell>
        <mxCell id="K7CuI77C3Jk4myJoS-8p-45" style="shape=partialRectangle;collapsible=0;dropTarget=0;pointerEvents=0;fillColor=none;top=0;left=0;bottom=0;right=0;points=[[0,0.5],[1,0.5]];portConstraint=eastwest;" vertex="1" parent="HQgpcalhJWOucow4i2d_-27">
          <mxGeometry y="330" width="185" height="30" as="geometry" />
        </mxCell>
        <mxCell id="K7CuI77C3Jk4myJoS-8p-46" style="shape=partialRectangle;connectable=0;fillColor=none;top=0;left=0;bottom=0;right=0;editable=1;overflow=hidden;" vertex="1" parent="K7CuI77C3Jk4myJoS-8p-45">
          <mxGeometry width="30" height="30" as="geometry" />
        </mxCell>
        <mxCell id="K7CuI77C3Jk4myJoS-8p-47" value="更新日" style="shape=partialRectangle;connectable=0;fillColor=none;top=0;left=0;bottom=0;right=0;align=left;spacingLeft=6;overflow=hidden;whiteSpace=wrap;" vertex="1" parent="K7CuI77C3Jk4myJoS-8p-45">
          <mxGeometry x="30" width="155" height="30" as="geometry" />
        </mxCell>
        <mxCell id="HQgpcalhJWOucow4i2d_-40" value="注文" style="shape=table;startSize=30;container=1;collapsible=1;childLayout=tableLayout;fixedRows=1;rowLines=0;fontStyle=1;align=center;resizeLast=1;" parent="1" vertex="1">
          <mxGeometry x="50" y="360" width="180" height="270.0000000000002" as="geometry" />
        </mxCell>
        <mxCell id="HQgpcalhJWOucow4i2d_-41" value="" style="shape=partialRectangle;collapsible=0;dropTarget=0;pointerEvents=0;fillColor=none;top=0;left=0;bottom=1;right=0;points=[[0,0.5],[1,0.5]];portConstraint=eastwest;" parent="HQgpcalhJWOucow4i2d_-40" vertex="1">
          <mxGeometry y="30" width="180" height="30" as="geometry" />
        </mxCell>
        <mxCell id="HQgpcalhJWOucow4i2d_-42" value="PK" style="shape=partialRectangle;connectable=0;fillColor=none;top=0;left=0;bottom=0;right=0;fontStyle=1;overflow=hidden;" parent="HQgpcalhJWOucow4i2d_-41" vertex="1">
          <mxGeometry width="30" height="30" as="geometry" />
        </mxCell>
        <mxCell id="HQgpcalhJWOucow4i2d_-43" value="UniqueID" style="shape=partialRectangle;connectable=0;fillColor=none;top=0;left=0;bottom=0;right=0;align=left;spacingLeft=6;fontStyle=5;overflow=hidden;" parent="HQgpcalhJWOucow4i2d_-41" vertex="1">
          <mxGeometry x="30" width="150" height="30" as="geometry" />
        </mxCell>
        <mxCell id="HQgpcalhJWOucow4i2d_-44" value="" style="shape=partialRectangle;collapsible=0;dropTarget=0;pointerEvents=0;fillColor=none;top=0;left=0;bottom=0;right=0;points=[[0,0.5],[1,0.5]];portConstraint=eastwest;" parent="HQgpcalhJWOucow4i2d_-40" vertex="1">
          <mxGeometry y="60" width="180" height="30" as="geometry" />
        </mxCell>
        <mxCell id="HQgpcalhJWOucow4i2d_-45" value="" style="shape=partialRectangle;connectable=0;fillColor=none;top=0;left=0;bottom=0;right=0;editable=1;overflow=hidden;" parent="HQgpcalhJWOucow4i2d_-44" vertex="1">
          <mxGeometry width="30" height="30" as="geometry" />
        </mxCell>
        <mxCell id="HQgpcalhJWOucow4i2d_-46" value="会員ID" style="shape=partialRectangle;connectable=0;fillColor=none;top=0;left=0;bottom=0;right=0;align=left;spacingLeft=6;overflow=hidden;" parent="HQgpcalhJWOucow4i2d_-44" vertex="1">
          <mxGeometry x="30" width="150" height="30" as="geometry" />
        </mxCell>
        <mxCell id="K7CuI77C3Jk4myJoS-8p-42" style="shape=partialRectangle;collapsible=0;dropTarget=0;pointerEvents=0;fillColor=none;top=0;left=0;bottom=0;right=0;points=[[0,0.5],[1,0.5]];portConstraint=eastwest;" vertex="1" parent="HQgpcalhJWOucow4i2d_-40">
          <mxGeometry y="90" width="180" height="30" as="geometry" />
        </mxCell>
        <mxCell id="K7CuI77C3Jk4myJoS-8p-43" style="shape=partialRectangle;connectable=0;fillColor=none;top=0;left=0;bottom=0;right=0;editable=1;overflow=hidden;" vertex="1" parent="K7CuI77C3Jk4myJoS-8p-42">
          <mxGeometry width="30" height="30" as="geometry" />
        </mxCell>
        <mxCell id="K7CuI77C3Jk4myJoS-8p-44" value="配送先ID" style="shape=partialRectangle;connectable=0;fillColor=none;top=0;left=0;bottom=0;right=0;align=left;spacingLeft=6;overflow=hidden;" vertex="1" parent="K7CuI77C3Jk4myJoS-8p-42">
          <mxGeometry x="30" width="150" height="30" as="geometry" />
        </mxCell>
        <mxCell id="HQgpcalhJWOucow4i2d_-50" value="" style="shape=partialRectangle;collapsible=0;dropTarget=0;pointerEvents=0;fillColor=none;top=0;left=0;bottom=0;right=0;points=[[0,0.5],[1,0.5]];portConstraint=eastwest;" parent="HQgpcalhJWOucow4i2d_-40" vertex="1">
          <mxGeometry y="120" width="180" height="30" as="geometry" />
        </mxCell>
        <mxCell id="HQgpcalhJWOucow4i2d_-51" value="" style="shape=partialRectangle;connectable=0;fillColor=none;top=0;left=0;bottom=0;right=0;editable=1;overflow=hidden;" parent="HQgpcalhJWOucow4i2d_-50" vertex="1">
          <mxGeometry width="30" height="30" as="geometry" />
        </mxCell>
        <mxCell id="HQgpcalhJWOucow4i2d_-52" value="合計金額" style="shape=partialRectangle;connectable=0;fillColor=none;top=0;left=0;bottom=0;right=0;align=left;spacingLeft=6;overflow=hidden;" parent="HQgpcalhJWOucow4i2d_-50" vertex="1">
          <mxGeometry x="30" width="150" height="30" as="geometry" />
        </mxCell>
        <mxCell id="v8ZFFHO1HFxHdXyD2R_P-50" style="shape=partialRectangle;collapsible=0;dropTarget=0;pointerEvents=0;fillColor=none;top=0;left=0;bottom=0;right=0;points=[[0,0.5],[1,0.5]];portConstraint=eastwest;" parent="HQgpcalhJWOucow4i2d_-40" vertex="1">
          <mxGeometry y="150" width="180" height="30" as="geometry" />
        </mxCell>
        <mxCell id="v8ZFFHO1HFxHdXyD2R_P-51" style="shape=partialRectangle;connectable=0;fillColor=none;top=0;left=0;bottom=0;right=0;editable=1;overflow=hidden;" parent="v8ZFFHO1HFxHdXyD2R_P-50" vertex="1">
          <mxGeometry width="30" height="30" as="geometry" />
        </mxCell>
        <mxCell id="v8ZFFHO1HFxHdXyD2R_P-52" value="支払方法" style="shape=partialRectangle;connectable=0;fillColor=none;top=0;left=0;bottom=0;right=0;align=left;spacingLeft=6;overflow=hidden;" parent="v8ZFFHO1HFxHdXyD2R_P-50" vertex="1">
          <mxGeometry x="30" width="150" height="30" as="geometry" />
        </mxCell>
        <mxCell id="v8ZFFHO1HFxHdXyD2R_P-44" style="shape=partialRectangle;collapsible=0;dropTarget=0;pointerEvents=0;fillColor=none;top=0;left=0;bottom=0;right=0;points=[[0,0.5],[1,0.5]];portConstraint=eastwest;" parent="HQgpcalhJWOucow4i2d_-40" vertex="1">
          <mxGeometry y="180" width="180" height="30" as="geometry" />
        </mxCell>
        <mxCell id="v8ZFFHO1HFxHdXyD2R_P-45" style="shape=partialRectangle;connectable=0;fillColor=none;top=0;left=0;bottom=0;right=0;editable=1;overflow=hidden;" parent="v8ZFFHO1HFxHdXyD2R_P-44" vertex="1">
          <mxGeometry width="30" height="30" as="geometry" />
        </mxCell>
        <mxCell id="v8ZFFHO1HFxHdXyD2R_P-46" value="注文ステータス" style="shape=partialRectangle;connectable=0;fillColor=none;top=0;left=0;bottom=0;right=0;align=left;spacingLeft=6;overflow=hidden;" parent="v8ZFFHO1HFxHdXyD2R_P-44" vertex="1">
          <mxGeometry x="30" width="150" height="30" as="geometry" />
        </mxCell>
        <mxCell id="v8ZFFHO1HFxHdXyD2R_P-41" style="shape=partialRectangle;collapsible=0;dropTarget=0;pointerEvents=0;fillColor=none;top=0;left=0;bottom=0;right=0;points=[[0,0.5],[1,0.5]];portConstraint=eastwest;" parent="HQgpcalhJWOucow4i2d_-40" vertex="1">
          <mxGeometry y="210" width="180" height="30" as="geometry" />
        </mxCell>
        <mxCell id="v8ZFFHO1HFxHdXyD2R_P-42" style="shape=partialRectangle;connectable=0;fillColor=none;top=0;left=0;bottom=0;right=0;editable=1;overflow=hidden;" parent="v8ZFFHO1HFxHdXyD2R_P-41" vertex="1">
          <mxGeometry width="30" height="30" as="geometry" />
        </mxCell>
        <mxCell id="v8ZFFHO1HFxHdXyD2R_P-43" value="登録日" style="shape=partialRectangle;connectable=0;fillColor=none;top=0;left=0;bottom=0;right=0;align=left;spacingLeft=6;overflow=hidden;" parent="v8ZFFHO1HFxHdXyD2R_P-41" vertex="1">
          <mxGeometry x="30" width="150" height="30" as="geometry" />
        </mxCell>
        <mxCell id="v8ZFFHO1HFxHdXyD2R_P-38" style="shape=partialRectangle;collapsible=0;dropTarget=0;pointerEvents=0;fillColor=none;top=0;left=0;bottom=0;right=0;points=[[0,0.5],[1,0.5]];portConstraint=eastwest;" parent="HQgpcalhJWOucow4i2d_-40" vertex="1">
          <mxGeometry y="240" width="180" height="30" as="geometry" />
        </mxCell>
        <mxCell id="v8ZFFHO1HFxHdXyD2R_P-39" style="shape=partialRectangle;connectable=0;fillColor=none;top=0;left=0;bottom=0;right=0;editable=1;overflow=hidden;" parent="v8ZFFHO1HFxHdXyD2R_P-38" vertex="1">
          <mxGeometry width="30" height="30" as="geometry" />
        </mxCell>
        <mxCell id="v8ZFFHO1HFxHdXyD2R_P-40" value="更新日" style="shape=partialRectangle;connectable=0;fillColor=none;top=0;left=0;bottom=0;right=0;align=left;spacingLeft=6;overflow=hidden;" parent="v8ZFFHO1HFxHdXyD2R_P-38" vertex="1">
          <mxGeometry x="30" width="150" height="30" as="geometry" />
        </mxCell>
        <mxCell id="v8ZFFHO1HFxHdXyD2R_P-56" value="管理者" style="shape=table;startSize=30;container=1;collapsible=1;childLayout=tableLayout;fixedRows=1;rowLines=0;fontStyle=1;align=center;resizeLast=1;fillColor=none;" parent="1" vertex="1">
          <mxGeometry x="30" y="740" width="180" height="210" as="geometry" />
        </mxCell>
        <mxCell id="v8ZFFHO1HFxHdXyD2R_P-57" value="" style="shape=partialRectangle;collapsible=0;dropTarget=0;pointerEvents=0;fillColor=none;top=0;left=0;bottom=1;right=0;points=[[0,0.5],[1,0.5]];portConstraint=eastwest;" parent="v8ZFFHO1HFxHdXyD2R_P-56" vertex="1">
          <mxGeometry y="30" width="180" height="30" as="geometry" />
        </mxCell>
        <mxCell id="v8ZFFHO1HFxHdXyD2R_P-58" value="PK" style="shape=partialRectangle;connectable=0;fillColor=none;top=0;left=0;bottom=0;right=0;fontStyle=1;overflow=hidden;" parent="v8ZFFHO1HFxHdXyD2R_P-57" vertex="1">
          <mxGeometry width="30" height="30" as="geometry" />
        </mxCell>
        <mxCell id="v8ZFFHO1HFxHdXyD2R_P-59" value="UniqueID" style="shape=partialRectangle;connectable=0;fillColor=none;top=0;left=0;bottom=0;right=0;align=left;spacingLeft=6;fontStyle=5;overflow=hidden;" parent="v8ZFFHO1HFxHdXyD2R_P-57" vertex="1">
          <mxGeometry x="30" width="150" height="30" as="geometry" />
        </mxCell>
        <mxCell id="v8ZFFHO1HFxHdXyD2R_P-60" value="" style="shape=partialRectangle;collapsible=0;dropTarget=0;pointerEvents=0;fillColor=none;top=0;left=0;bottom=0;right=0;points=[[0,0.5],[1,0.5]];portConstraint=eastwest;" parent="v8ZFFHO1HFxHdXyD2R_P-56" vertex="1">
          <mxGeometry y="60" width="180" height="30" as="geometry" />
        </mxCell>
        <mxCell id="v8ZFFHO1HFxHdXyD2R_P-61" value="" style="shape=partialRectangle;connectable=0;fillColor=none;top=0;left=0;bottom=0;right=0;editable=1;overflow=hidden;" parent="v8ZFFHO1HFxHdXyD2R_P-60" vertex="1">
          <mxGeometry width="30" height="30" as="geometry" />
        </mxCell>
        <mxCell id="v8ZFFHO1HFxHdXyD2R_P-62" value="Row 1" style="shape=partialRectangle;connectable=0;fillColor=none;top=0;left=0;bottom=0;right=0;align=left;spacingLeft=6;overflow=hidden;" parent="v8ZFFHO1HFxHdXyD2R_P-60" vertex="1">
          <mxGeometry x="30" width="150" height="30" as="geometry" />
        </mxCell>
        <mxCell id="v8ZFFHO1HFxHdXyD2R_P-63" value="" style="shape=partialRectangle;collapsible=0;dropTarget=0;pointerEvents=0;fillColor=none;top=0;left=0;bottom=0;right=0;points=[[0,0.5],[1,0.5]];portConstraint=eastwest;" parent="v8ZFFHO1HFxHdXyD2R_P-56" vertex="1">
          <mxGeometry y="90" width="180" height="30" as="geometry" />
        </mxCell>
        <mxCell id="v8ZFFHO1HFxHdXyD2R_P-64" value="" style="shape=partialRectangle;connectable=0;fillColor=none;top=0;left=0;bottom=0;right=0;editable=1;overflow=hidden;" parent="v8ZFFHO1HFxHdXyD2R_P-63" vertex="1">
          <mxGeometry width="30" height="30" as="geometry" />
        </mxCell>
        <mxCell id="v8ZFFHO1HFxHdXyD2R_P-65" value="Row 2" style="shape=partialRectangle;connectable=0;fillColor=none;top=0;left=0;bottom=0;right=0;align=left;spacingLeft=6;overflow=hidden;" parent="v8ZFFHO1HFxHdXyD2R_P-63" vertex="1">
          <mxGeometry x="30" width="150" height="30" as="geometry" />
        </mxCell>
        <mxCell id="v8ZFFHO1HFxHdXyD2R_P-66" value="" style="shape=partialRectangle;collapsible=0;dropTarget=0;pointerEvents=0;fillColor=none;top=0;left=0;bottom=0;right=0;points=[[0,0.5],[1,0.5]];portConstraint=eastwest;" parent="v8ZFFHO1HFxHdXyD2R_P-56" vertex="1">
          <mxGeometry y="120" width="180" height="30" as="geometry" />
        </mxCell>
        <mxCell id="v8ZFFHO1HFxHdXyD2R_P-67" value="" style="shape=partialRectangle;connectable=0;fillColor=none;top=0;left=0;bottom=0;right=0;editable=1;overflow=hidden;" parent="v8ZFFHO1HFxHdXyD2R_P-66" vertex="1">
          <mxGeometry width="30" height="30" as="geometry" />
        </mxCell>
        <mxCell id="v8ZFFHO1HFxHdXyD2R_P-68" value="Row 3" style="shape=partialRectangle;connectable=0;fillColor=none;top=0;left=0;bottom=0;right=0;align=left;spacingLeft=6;overflow=hidden;" parent="v8ZFFHO1HFxHdXyD2R_P-66" vertex="1">
          <mxGeometry x="30" width="150" height="30" as="geometry" />
        </mxCell>
        <mxCell id="v8ZFFHO1HFxHdXyD2R_P-72" style="shape=partialRectangle;collapsible=0;dropTarget=0;pointerEvents=0;fillColor=none;top=0;left=0;bottom=0;right=0;points=[[0,0.5],[1,0.5]];portConstraint=eastwest;" parent="v8ZFFHO1HFxHdXyD2R_P-56" vertex="1">
          <mxGeometry y="150" width="180" height="30" as="geometry" />
        </mxCell>
        <mxCell id="v8ZFFHO1HFxHdXyD2R_P-73" style="shape=partialRectangle;connectable=0;fillColor=none;top=0;left=0;bottom=0;right=0;editable=1;overflow=hidden;" parent="v8ZFFHO1HFxHdXyD2R_P-72" vertex="1">
          <mxGeometry width="30" height="30" as="geometry" />
        </mxCell>
        <mxCell id="v8ZFFHO1HFxHdXyD2R_P-74" style="shape=partialRectangle;connectable=0;fillColor=none;top=0;left=0;bottom=0;right=0;align=left;spacingLeft=6;overflow=hidden;" parent="v8ZFFHO1HFxHdXyD2R_P-72" vertex="1">
          <mxGeometry x="30" width="150" height="30" as="geometry" />
        </mxCell>
        <mxCell id="v8ZFFHO1HFxHdXyD2R_P-69" style="shape=partialRectangle;collapsible=0;dropTarget=0;pointerEvents=0;fillColor=none;top=0;left=0;bottom=0;right=0;points=[[0,0.5],[1,0.5]];portConstraint=eastwest;" parent="v8ZFFHO1HFxHdXyD2R_P-56" vertex="1">
          <mxGeometry y="180" width="180" height="30" as="geometry" />
        </mxCell>
        <mxCell id="v8ZFFHO1HFxHdXyD2R_P-70" style="shape=partialRectangle;connectable=0;fillColor=none;top=0;left=0;bottom=0;right=0;editable=1;overflow=hidden;" parent="v8ZFFHO1HFxHdXyD2R_P-69" vertex="1">
          <mxGeometry width="30" height="30" as="geometry" />
        </mxCell>
        <mxCell id="v8ZFFHO1HFxHdXyD2R_P-71" style="shape=partialRectangle;connectable=0;fillColor=none;top=0;left=0;bottom=0;right=0;align=left;spacingLeft=6;overflow=hidden;" parent="v8ZFFHO1HFxHdXyD2R_P-69" vertex="1">
          <mxGeometry x="30" width="150" height="30" as="geometry" />
        </mxCell>
        <mxCell id="v8ZFFHO1HFxHdXyD2R_P-75" value="カート" style="shape=table;startSize=30;container=1;collapsible=1;childLayout=tableLayout;fixedRows=1;rowLines=0;fontStyle=1;align=center;resizeLast=1;fillColor=none;" parent="1" vertex="1">
          <mxGeometry x="490" y="190" width="180" height="280.0000000000002" as="geometry" />
        </mxCell>
        <mxCell id="v8ZFFHO1HFxHdXyD2R_P-76" value="" style="shape=partialRectangle;collapsible=0;dropTarget=0;pointerEvents=0;fillColor=none;top=0;left=0;bottom=1;right=0;points=[[0,0.5],[1,0.5]];portConstraint=eastwest;" parent="v8ZFFHO1HFxHdXyD2R_P-75" vertex="1">
          <mxGeometry y="30" width="180" height="30" as="geometry" />
        </mxCell>
        <mxCell id="v8ZFFHO1HFxHdXyD2R_P-77" value="PK" style="shape=partialRectangle;connectable=0;fillColor=none;top=0;left=0;bottom=0;right=0;fontStyle=1;overflow=hidden;" parent="v8ZFFHO1HFxHdXyD2R_P-76" vertex="1">
          <mxGeometry width="30" height="30" as="geometry" />
        </mxCell>
        <mxCell id="v8ZFFHO1HFxHdXyD2R_P-78" value="UniqueID" style="shape=partialRectangle;connectable=0;fillColor=none;top=0;left=0;bottom=0;right=0;align=left;spacingLeft=6;fontStyle=5;overflow=hidden;" parent="v8ZFFHO1HFxHdXyD2R_P-76" vertex="1">
          <mxGeometry x="30" width="150" height="30" as="geometry" />
        </mxCell>
        <mxCell id="K7CuI77C3Jk4myJoS-8p-23" style="shape=partialRectangle;collapsible=0;dropTarget=0;pointerEvents=0;fillColor=none;top=0;left=0;bottom=0;right=0;points=[[0,0.5],[1,0.5]];portConstraint=eastwest;" vertex="1" parent="v8ZFFHO1HFxHdXyD2R_P-75">
          <mxGeometry y="60" width="180" height="30" as="geometry" />
        </mxCell>
        <mxCell id="K7CuI77C3Jk4myJoS-8p-24" value="FK" style="shape=partialRectangle;connectable=0;fillColor=none;top=0;left=0;bottom=0;right=0;editable=1;overflow=hidden;" vertex="1" parent="K7CuI77C3Jk4myJoS-8p-23">
          <mxGeometry width="30" height="30" as="geometry" />
        </mxCell>
        <mxCell id="K7CuI77C3Jk4myJoS-8p-25" value="会員ID" style="shape=partialRectangle;connectable=0;fillColor=none;top=0;left=0;bottom=0;right=0;align=left;spacingLeft=6;overflow=hidden;" vertex="1" parent="K7CuI77C3Jk4myJoS-8p-23">
          <mxGeometry x="30" width="150" height="30" as="geometry" />
        </mxCell>
        <mxCell id="v8ZFFHO1HFxHdXyD2R_P-79" value="" style="shape=partialRectangle;collapsible=0;dropTarget=0;pointerEvents=0;fillColor=none;top=0;left=0;bottom=0;right=0;points=[[0,0.5],[1,0.5]];portConstraint=eastwest;" parent="v8ZFFHO1HFxHdXyD2R_P-75" vertex="1">
          <mxGeometry y="90" width="180" height="30" as="geometry" />
        </mxCell>
        <mxCell id="v8ZFFHO1HFxHdXyD2R_P-80" value="FK" style="shape=partialRectangle;connectable=0;fillColor=none;top=0;left=0;bottom=0;right=0;editable=1;overflow=hidden;" parent="v8ZFFHO1HFxHdXyD2R_P-79" vertex="1">
          <mxGeometry width="30" height="30" as="geometry" />
        </mxCell>
        <mxCell id="v8ZFFHO1HFxHdXyD2R_P-81" value="商品ID" style="shape=partialRectangle;connectable=0;fillColor=none;top=0;left=0;bottom=0;right=0;align=left;spacingLeft=6;overflow=hidden;" parent="v8ZFFHO1HFxHdXyD2R_P-79" vertex="1">
          <mxGeometry x="30" width="150" height="30" as="geometry" />
        </mxCell>
        <mxCell id="v8ZFFHO1HFxHdXyD2R_P-85" value="" style="shape=partialRectangle;collapsible=0;dropTarget=0;pointerEvents=0;fillColor=none;top=0;left=0;bottom=0;right=0;points=[[0,0.5],[1,0.5]];portConstraint=eastwest;" parent="v8ZFFHO1HFxHdXyD2R_P-75" vertex="1">
          <mxGeometry y="120" width="180" height="30" as="geometry" />
        </mxCell>
        <mxCell id="v8ZFFHO1HFxHdXyD2R_P-86" value="" style="shape=partialRectangle;connectable=0;fillColor=none;top=0;left=0;bottom=0;right=0;editable=1;overflow=hidden;" parent="v8ZFFHO1HFxHdXyD2R_P-85" vertex="1">
          <mxGeometry width="30" height="30" as="geometry" />
        </mxCell>
        <mxCell id="v8ZFFHO1HFxHdXyD2R_P-87" value="注文数" style="shape=partialRectangle;connectable=0;fillColor=none;top=0;left=0;bottom=0;right=0;align=left;spacingLeft=6;overflow=hidden;" parent="v8ZFFHO1HFxHdXyD2R_P-85" vertex="1">
          <mxGeometry x="30" width="150" height="30" as="geometry" />
        </mxCell>
        <mxCell id="v8ZFFHO1HFxHdXyD2R_P-97" style="shape=partialRectangle;collapsible=0;dropTarget=0;pointerEvents=0;fillColor=none;top=0;left=0;bottom=0;right=0;points=[[0,0.5],[1,0.5]];portConstraint=eastwest;" parent="v8ZFFHO1HFxHdXyD2R_P-75" vertex="1">
          <mxGeometry y="150" width="180" height="30" as="geometry" />
        </mxCell>
        <mxCell id="v8ZFFHO1HFxHdXyD2R_P-98" style="shape=partialRectangle;connectable=0;fillColor=none;top=0;left=0;bottom=0;right=0;editable=1;overflow=hidden;" parent="v8ZFFHO1HFxHdXyD2R_P-97" vertex="1">
          <mxGeometry width="30" height="30" as="geometry" />
        </mxCell>
        <mxCell id="v8ZFFHO1HFxHdXyD2R_P-99" value="合計価格" style="shape=partialRectangle;connectable=0;fillColor=none;top=0;left=0;bottom=0;right=0;align=left;spacingLeft=6;overflow=hidden;" parent="v8ZFFHO1HFxHdXyD2R_P-97" vertex="1">
          <mxGeometry x="30" width="150" height="30" as="geometry" />
        </mxCell>
        <mxCell id="v8ZFFHO1HFxHdXyD2R_P-94" style="shape=partialRectangle;collapsible=0;dropTarget=0;pointerEvents=0;fillColor=none;top=0;left=0;bottom=0;right=0;points=[[0,0.5],[1,0.5]];portConstraint=eastwest;" parent="v8ZFFHO1HFxHdXyD2R_P-75" vertex="1">
          <mxGeometry y="180" width="180" height="30" as="geometry" />
        </mxCell>
        <mxCell id="v8ZFFHO1HFxHdXyD2R_P-95" style="shape=partialRectangle;connectable=0;fillColor=none;top=0;left=0;bottom=0;right=0;editable=1;overflow=hidden;" parent="v8ZFFHO1HFxHdXyD2R_P-94" vertex="1">
          <mxGeometry width="30" height="30" as="geometry" />
        </mxCell>
        <mxCell id="v8ZFFHO1HFxHdXyD2R_P-96" value="登録日" style="shape=partialRectangle;connectable=0;fillColor=none;top=0;left=0;bottom=0;right=0;align=left;spacingLeft=6;overflow=hidden;" parent="v8ZFFHO1HFxHdXyD2R_P-94" vertex="1">
          <mxGeometry x="30" width="150" height="30" as="geometry" />
        </mxCell>
        <mxCell id="v8ZFFHO1HFxHdXyD2R_P-91" style="shape=partialRectangle;collapsible=0;dropTarget=0;pointerEvents=0;fillColor=none;top=0;left=0;bottom=0;right=0;points=[[0,0.5],[1,0.5]];portConstraint=eastwest;" parent="v8ZFFHO1HFxHdXyD2R_P-75" vertex="1">
          <mxGeometry y="210" width="180" height="30" as="geometry" />
        </mxCell>
        <mxCell id="v8ZFFHO1HFxHdXyD2R_P-92" style="shape=partialRectangle;connectable=0;fillColor=none;top=0;left=0;bottom=0;right=0;editable=1;overflow=hidden;" parent="v8ZFFHO1HFxHdXyD2R_P-91" vertex="1">
          <mxGeometry width="30" height="30" as="geometry" />
        </mxCell>
        <mxCell id="v8ZFFHO1HFxHdXyD2R_P-93" value="更新日" style="shape=partialRectangle;connectable=0;fillColor=none;top=0;left=0;bottom=0;right=0;align=left;spacingLeft=6;overflow=hidden;" parent="v8ZFFHO1HFxHdXyD2R_P-91" vertex="1">
          <mxGeometry x="30" width="150" height="30" as="geometry" />
        </mxCell>
        <mxCell id="v8ZFFHO1HFxHdXyD2R_P-88" style="shape=partialRectangle;collapsible=0;dropTarget=0;pointerEvents=0;fillColor=none;top=0;left=0;bottom=0;right=0;points=[[0,0.5],[1,0.5]];portConstraint=eastwest;" parent="v8ZFFHO1HFxHdXyD2R_P-75" vertex="1">
          <mxGeometry y="240" width="180" height="30" as="geometry" />
        </mxCell>
        <mxCell id="v8ZFFHO1HFxHdXyD2R_P-89" style="shape=partialRectangle;connectable=0;fillColor=none;top=0;left=0;bottom=0;right=0;editable=1;overflow=hidden;" parent="v8ZFFHO1HFxHdXyD2R_P-88" vertex="1">
          <mxGeometry width="30" height="30" as="geometry" />
        </mxCell>
        <mxCell id="v8ZFFHO1HFxHdXyD2R_P-90" style="shape=partialRectangle;connectable=0;fillColor=none;top=0;left=0;bottom=0;right=0;align=left;spacingLeft=6;overflow=hidden;" parent="v8ZFFHO1HFxHdXyD2R_P-88" vertex="1">
          <mxGeometry x="30" width="150" height="30" as="geometry" />
        </mxCell>
        <mxCell id="K7CuI77C3Jk4myJoS-8p-1" value="注文商品" style="shape=table;startSize=30;container=1;collapsible=1;childLayout=tableLayout;fixedRows=1;rowLines=0;fontStyle=1;align=center;resizeLast=1;" vertex="1" parent="1">
          <mxGeometry x="490" y="500" width="180" height="180" as="geometry" />
        </mxCell>
        <mxCell id="K7CuI77C3Jk4myJoS-8p-2" value="" style="shape=partialRectangle;collapsible=0;dropTarget=0;pointerEvents=0;fillColor=none;top=0;left=0;bottom=1;right=0;points=[[0,0.5],[1,0.5]];portConstraint=eastwest;" vertex="1" parent="K7CuI77C3Jk4myJoS-8p-1">
          <mxGeometry y="30" width="180" height="30" as="geometry" />
        </mxCell>
        <mxCell id="K7CuI77C3Jk4myJoS-8p-3" value="PK" style="shape=partialRectangle;connectable=0;fillColor=none;top=0;left=0;bottom=0;right=0;fontStyle=1;overflow=hidden;" vertex="1" parent="K7CuI77C3Jk4myJoS-8p-2">
          <mxGeometry width="30" height="30" as="geometry" />
        </mxCell>
        <mxCell id="K7CuI77C3Jk4myJoS-8p-4" value="UniqueID" style="shape=partialRectangle;connectable=0;fillColor=none;top=0;left=0;bottom=0;right=0;align=left;spacingLeft=6;fontStyle=5;overflow=hidden;" vertex="1" parent="K7CuI77C3Jk4myJoS-8p-2">
          <mxGeometry x="30" width="150" height="30" as="geometry" />
        </mxCell>
        <mxCell id="K7CuI77C3Jk4myJoS-8p-8" value="" style="shape=partialRectangle;collapsible=0;dropTarget=0;pointerEvents=0;fillColor=none;top=0;left=0;bottom=0;right=0;points=[[0,0.5],[1,0.5]];portConstraint=eastwest;" vertex="1" parent="K7CuI77C3Jk4myJoS-8p-1">
          <mxGeometry y="60" width="180" height="30" as="geometry" />
        </mxCell>
        <mxCell id="K7CuI77C3Jk4myJoS-8p-9" value="" style="shape=partialRectangle;connectable=0;fillColor=none;top=0;left=0;bottom=0;right=0;editable=1;overflow=hidden;" vertex="1" parent="K7CuI77C3Jk4myJoS-8p-8">
          <mxGeometry width="30" height="30" as="geometry" />
        </mxCell>
        <mxCell id="K7CuI77C3Jk4myJoS-8p-10" value="商品ID" style="shape=partialRectangle;connectable=0;fillColor=none;top=0;left=0;bottom=0;right=0;align=left;spacingLeft=6;overflow=hidden;" vertex="1" parent="K7CuI77C3Jk4myJoS-8p-8">
          <mxGeometry x="30" width="150" height="30" as="geometry" />
        </mxCell>
        <mxCell id="K7CuI77C3Jk4myJoS-8p-11" value="" style="shape=partialRectangle;collapsible=0;dropTarget=0;pointerEvents=0;fillColor=none;top=0;left=0;bottom=0;right=0;points=[[0,0.5],[1,0.5]];portConstraint=eastwest;" vertex="1" parent="K7CuI77C3Jk4myJoS-8p-1">
          <mxGeometry y="90" width="180" height="30" as="geometry" />
        </mxCell>
        <mxCell id="K7CuI77C3Jk4myJoS-8p-12" value="" style="shape=partialRectangle;connectable=0;fillColor=none;top=0;left=0;bottom=0;right=0;editable=1;overflow=hidden;" vertex="1" parent="K7CuI77C3Jk4myJoS-8p-11">
          <mxGeometry width="30" height="30" as="geometry" />
        </mxCell>
        <mxCell id="K7CuI77C3Jk4myJoS-8p-13" value="個数" style="shape=partialRectangle;connectable=0;fillColor=none;top=0;left=0;bottom=0;right=0;align=left;spacingLeft=6;overflow=hidden;" vertex="1" parent="K7CuI77C3Jk4myJoS-8p-11">
          <mxGeometry x="30" width="150" height="30" as="geometry" />
        </mxCell>
        <mxCell id="K7CuI77C3Jk4myJoS-8p-20" style="shape=partialRectangle;collapsible=0;dropTarget=0;pointerEvents=0;fillColor=none;top=0;left=0;bottom=0;right=0;points=[[0,0.5],[1,0.5]];portConstraint=eastwest;" vertex="1" parent="K7CuI77C3Jk4myJoS-8p-1">
          <mxGeometry y="120" width="180" height="30" as="geometry" />
        </mxCell>
        <mxCell id="K7CuI77C3Jk4myJoS-8p-21" style="shape=partialRectangle;connectable=0;fillColor=none;top=0;left=0;bottom=0;right=0;editable=1;overflow=hidden;" vertex="1" parent="K7CuI77C3Jk4myJoS-8p-20">
          <mxGeometry width="30" height="30" as="geometry" />
        </mxCell>
        <mxCell id="K7CuI77C3Jk4myJoS-8p-22" value="登録日" style="shape=partialRectangle;connectable=0;fillColor=none;top=0;left=0;bottom=0;right=0;align=left;spacingLeft=6;overflow=hidden;" vertex="1" parent="K7CuI77C3Jk4myJoS-8p-20">
          <mxGeometry x="30" width="150" height="30" as="geometry" />
        </mxCell>
        <mxCell id="K7CuI77C3Jk4myJoS-8p-17" style="shape=partialRectangle;collapsible=0;dropTarget=0;pointerEvents=0;fillColor=none;top=0;left=0;bottom=0;right=0;points=[[0,0.5],[1,0.5]];portConstraint=eastwest;" vertex="1" parent="K7CuI77C3Jk4myJoS-8p-1">
          <mxGeometry y="150" width="180" height="30" as="geometry" />
        </mxCell>
        <mxCell id="K7CuI77C3Jk4myJoS-8p-18" style="shape=partialRectangle;connectable=0;fillColor=none;top=0;left=0;bottom=0;right=0;editable=1;overflow=hidden;" vertex="1" parent="K7CuI77C3Jk4myJoS-8p-17">
          <mxGeometry width="30" height="30" as="geometry" />
        </mxCell>
        <mxCell id="K7CuI77C3Jk4myJoS-8p-19" value="更新日" style="shape=partialRectangle;connectable=0;fillColor=none;top=0;left=0;bottom=0;right=0;align=left;spacingLeft=6;overflow=hidden;" vertex="1" parent="K7CuI77C3Jk4myJoS-8p-17">
          <mxGeometry x="30" width="150" height="30" as="geometry" />
        </mxCell>
        <mxCell id="K7CuI77C3Jk4myJoS-8p-26" value="商品ジャンル" style="shape=table;startSize=30;container=1;collapsible=1;childLayout=tableLayout;fixedRows=1;rowLines=0;fontStyle=1;align=center;resizeLast=1;" vertex="1" parent="1">
          <mxGeometry x="480" y="10" width="180" height="160" as="geometry" />
        </mxCell>
        <mxCell id="K7CuI77C3Jk4myJoS-8p-27" value="" style="shape=partialRectangle;collapsible=0;dropTarget=0;pointerEvents=0;fillColor=none;top=0;left=0;bottom=1;right=0;points=[[0,0.5],[1,0.5]];portConstraint=eastwest;" vertex="1" parent="K7CuI77C3Jk4myJoS-8p-26">
          <mxGeometry y="30" width="180" height="30" as="geometry" />
        </mxCell>
        <mxCell id="K7CuI77C3Jk4myJoS-8p-28" value="PK" style="shape=partialRectangle;connectable=0;fillColor=none;top=0;left=0;bottom=0;right=0;fontStyle=1;overflow=hidden;" vertex="1" parent="K7CuI77C3Jk4myJoS-8p-27">
          <mxGeometry width="30" height="30" as="geometry" />
        </mxCell>
        <mxCell id="K7CuI77C3Jk4myJoS-8p-29" value="UniqueID" style="shape=partialRectangle;connectable=0;fillColor=none;top=0;left=0;bottom=0;right=0;align=left;spacingLeft=6;fontStyle=5;overflow=hidden;" vertex="1" parent="K7CuI77C3Jk4myJoS-8p-27">
          <mxGeometry x="30" width="150" height="30" as="geometry" />
        </mxCell>
        <mxCell id="K7CuI77C3Jk4myJoS-8p-30" value="" style="shape=partialRectangle;collapsible=0;dropTarget=0;pointerEvents=0;fillColor=none;top=0;left=0;bottom=0;right=0;points=[[0,0.5],[1,0.5]];portConstraint=eastwest;" vertex="1" parent="K7CuI77C3Jk4myJoS-8p-26">
          <mxGeometry y="60" width="180" height="30" as="geometry" />
        </mxCell>
        <mxCell id="K7CuI77C3Jk4myJoS-8p-31" value="" style="shape=partialRectangle;connectable=0;fillColor=none;top=0;left=0;bottom=0;right=0;editable=1;overflow=hidden;" vertex="1" parent="K7CuI77C3Jk4myJoS-8p-30">
          <mxGeometry width="30" height="30" as="geometry" />
        </mxCell>
        <mxCell id="K7CuI77C3Jk4myJoS-8p-32" value="ジャンル名" style="shape=partialRectangle;connectable=0;fillColor=none;top=0;left=0;bottom=0;right=0;align=left;spacingLeft=6;overflow=hidden;" vertex="1" parent="K7CuI77C3Jk4myJoS-8p-30">
          <mxGeometry x="30" width="150" height="30" as="geometry" />
        </mxCell>
        <mxCell id="K7CuI77C3Jk4myJoS-8p-33" value="" style="shape=partialRectangle;collapsible=0;dropTarget=0;pointerEvents=0;fillColor=none;top=0;left=0;bottom=0;right=0;points=[[0,0.5],[1,0.5]];portConstraint=eastwest;" vertex="1" parent="K7CuI77C3Jk4myJoS-8p-26">
          <mxGeometry y="90" width="180" height="30" as="geometry" />
        </mxCell>
        <mxCell id="K7CuI77C3Jk4myJoS-8p-34" value="" style="shape=partialRectangle;connectable=0;fillColor=none;top=0;left=0;bottom=0;right=0;editable=1;overflow=hidden;" vertex="1" parent="K7CuI77C3Jk4myJoS-8p-33">
          <mxGeometry width="30" height="30" as="geometry" />
        </mxCell>
        <mxCell id="K7CuI77C3Jk4myJoS-8p-35" value="登録日" style="shape=partialRectangle;connectable=0;fillColor=none;top=0;left=0;bottom=0;right=0;align=left;spacingLeft=6;overflow=hidden;" vertex="1" parent="K7CuI77C3Jk4myJoS-8p-33">
          <mxGeometry x="30" width="150" height="30" as="geometry" />
        </mxCell>
        <mxCell id="K7CuI77C3Jk4myJoS-8p-36" value="" style="shape=partialRectangle;collapsible=0;dropTarget=0;pointerEvents=0;fillColor=none;top=0;left=0;bottom=0;right=0;points=[[0,0.5],[1,0.5]];portConstraint=eastwest;" vertex="1" parent="K7CuI77C3Jk4myJoS-8p-26">
          <mxGeometry y="120" width="180" height="30" as="geometry" />
        </mxCell>
        <mxCell id="K7CuI77C3Jk4myJoS-8p-37" value="" style="shape=partialRectangle;connectable=0;fillColor=none;top=0;left=0;bottom=0;right=0;editable=1;overflow=hidden;" vertex="1" parent="K7CuI77C3Jk4myJoS-8p-36">
          <mxGeometry width="30" height="30" as="geometry" />
        </mxCell>
        <mxCell id="K7CuI77C3Jk4myJoS-8p-38" value="更新日" style="shape=partialRectangle;connectable=0;fillColor=none;top=0;left=0;bottom=0;right=0;align=left;spacingLeft=6;overflow=hidden;" vertex="1" parent="K7CuI77C3Jk4myJoS-8p-36">
          <mxGeometry x="30" width="150" height="30" as="geometry" />
        </mxCell>
      </root>
    </mxGraphModel>
  </diagram>
</mxfile>
